<svg width="24" height="24" viewBox="0 0 24 25" fill="none" xmlns="http://www.w3.org/2000/svg">
<path d="M12 9.19148V13.2766M12 17.3617H12.01M10.29 3.94212L1.82002 18.383C1.64539 18.6918 1.55299 19.042 1.55201 19.3987C1.55103 19.7553 1.64151 20.106 1.81445 20.4158C1.98738 20.7257 2.23675 20.9839 2.53773 21.1648C2.83871 21.3456 3.18082 21.4429 3.53002 21.4468H20.47C20.8192 21.4429 21.1613 21.3456 21.4623 21.1648C21.7633 20.9839 22.0127 20.7257 22.1856 20.4158C22.3585 20.106 22.449 19.7553 22.448 19.3987C22.4471 19.042 22.3547 18.6918 22.18 18.383L13.71 3.94212C13.5318 3.64197 13.2807 3.39382 12.9812 3.22159C12.6817 3.04937 12.3438 2.95889 12 2.95889C11.6563 2.95889 11.3184 3.04937 11.0188 3.22159C10.7193 3.39382 10.4683 3.64197 10.29 3.94212Z" stroke="#FC6557" stroke-width="2.5" stroke-linecap="round" stroke-linejoin="round"/>
</svg>
