<svg width="32" height="32" viewBox="0 0 32 32" fill="none" xmlns="http://www.w3.org/2000/svg">
<g clip-path="url(#clip0_2_16)">
<path d="M7.33331 5.33331C7.33331 5.72888 7.21602 6.11556 6.99625 6.44445C6.77649 6.77335 6.46413 7.0297 6.09868 7.18107C5.73323 7.33245 5.3311 7.37205 4.94313 7.29488C4.55517 7.21771 4.19881 7.02723 3.9191 6.74753C3.6394 6.46782 3.44891 6.11146 3.37174 5.72349C3.29457 5.33553 3.33418 4.9334 3.48555 4.56795C3.63693 4.20249 3.89327 3.89014 4.22217 3.67037C4.55107 3.45061 4.93775 3.33331 5.33331 3.33331C5.86375 3.33331 6.37245 3.54403 6.74753 3.9191C7.1226 4.29417 7.33331 4.80288 7.33331 5.33331ZM16 3.33331C15.6044 3.33331 15.2177 3.45061 14.8888 3.67037C14.5599 3.89014 14.3036 4.20249 14.1522 4.56795C14.0008 4.9334 13.9612 5.33553 14.0384 5.72349C14.1156 6.11146 14.3061 6.46782 14.5858 6.74753C14.8655 7.02723 15.2218 7.21771 15.6098 7.29488C15.9978 7.37205 16.3999 7.33245 16.7653 7.18107C17.1308 7.0297 17.4432 6.77335 17.6629 6.44445C17.8827 6.11556 18 5.72888 18 5.33331C18 4.80288 17.7893 4.29417 17.4142 3.9191C17.0391 3.54403 16.5304 3.33331 16 3.33331ZM26.6666 3.33331C26.2711 3.33331 25.8844 3.45061 25.5555 3.67037C25.2266 3.89014 24.9703 4.20249 24.8189 4.56795C24.6675 4.9334 24.6279 5.33553 24.7051 5.72349C24.7822 6.11146 24.9727 6.46782 25.2524 6.74753C25.5321 7.02723 25.8885 7.21771 26.2765 7.29488C26.6644 7.37205 27.0666 7.33245 27.432 7.18107C27.7975 7.0297 28.1098 6.77335 28.3296 6.44445C28.5493 6.11556 28.6666 5.72888 28.6666 5.33331C28.6666 4.80288 28.4559 4.29417 28.0809 3.9191C27.7058 3.54403 27.1971 3.33331 26.6666 3.33331ZM5.33331 14C4.93775 14 4.55107 14.1173 4.22217 14.337C3.89327 14.5568 3.63693 14.8692 3.48555 15.2346C3.33418 15.6001 3.29457 16.0022 3.37174 16.3902C3.44891 16.7781 3.6394 17.1345 3.9191 17.4142C4.19881 17.6939 4.55517 17.8844 4.94313 17.9615C5.3311 18.0387 5.73323 17.9991 6.09868 17.8477C6.46413 17.6964 6.77649 17.44 6.99625 17.1111C7.21602 16.7822 7.33331 16.3955 7.33331 16C7.33331 15.4695 7.1226 14.9608 6.74753 14.5858C6.37245 14.2107 5.86375 14 5.33331 14ZM16 14C15.6044 14 15.2177 14.1173 14.8888 14.337C14.5599 14.5568 14.3036 14.8692 14.1522 15.2346C14.0008 15.6001 13.9612 16.0022 14.0384 16.3902C14.1156 16.7781 14.3061 17.1345 14.5858 17.4142C14.8655 17.6939 15.2218 17.8844 15.6098 17.9615C15.9978 18.0387 16.3999 17.9991 16.7653 17.8477C17.1308 17.6964 17.4432 17.44 17.6629 17.1111C17.8827 16.7822 18 16.3955 18 16C18 15.4695 17.7893 14.9608 17.4142 14.5858C17.0391 14.2107 16.5304 14 16 14ZM26.6666 14C26.2711 14 25.8844 14.1173 25.5555 14.337C25.2266 14.5568 24.9703 14.8692 24.8189 15.2346C24.6675 15.6001 24.6279 16.0022 24.7051 16.3902C24.7822 16.7781 24.9727 17.1345 25.2524 17.4142C25.5321 17.6939 25.8885 17.8844 26.2765 17.9615C26.6644 18.0387 27.0666 17.9991 27.432 17.8477C27.7975 17.6964 28.1098 17.44 28.3296 17.1111C28.5493 16.7822 28.6666 16.3955 28.6666 16C28.6666 15.4695 28.4559 14.9608 28.0809 14.5858C27.7058 14.2107 27.1971 14 26.6666 14ZM5.33331 24.6666C4.93775 24.6666 4.55107 24.7839 4.22217 25.0037C3.89327 25.2235 3.63693 25.5358 3.48555 25.9013C3.33418 26.2667 3.29457 26.6689 3.37174 27.0568C3.44891 27.4448 3.6394 27.8012 3.9191 28.0809C4.19881 28.3606 4.55517 28.551 4.94313 28.6282C5.3311 28.7054 5.73323 28.6658 6.09868 28.5144C6.46413 28.363 6.77649 28.1067 6.99625 27.7778C7.21602 27.4489 7.33331 27.0622 7.33331 26.6666C7.33331 26.1362 7.1226 25.6275 6.74753 25.2524C6.37245 24.8774 5.86375 24.6666 5.33331 24.6666ZM16 24.6666C15.6044 24.6666 15.2177 24.7839 14.8888 25.0037C14.5599 25.2235 14.3036 25.5358 14.1522 25.9013C14.0008 26.2667 13.9612 26.6689 14.0384 27.0568C14.1156 27.4448 14.3061 27.8012 14.5858 28.0809C14.8655 28.3606 15.2218 28.551 15.6098 28.6282C15.9978 28.7054 16.3999 28.6658 16.7653 28.5144C17.1308 28.363 17.4432 28.1067 17.6629 27.7778C17.8827 27.4489 18 27.0622 18 26.6666C18 26.1362 17.7893 25.6275 17.4142 25.2524C17.0391 24.8774 16.5304 24.6666 16 24.6666ZM26.6666 24.6666C26.2711 24.6666 25.8844 24.7839 25.5555 25.0037C25.2266 25.2235 24.9703 25.5358 24.8189 25.9013C24.6675 26.2667 24.6279 26.6689 24.7051 27.0568C24.7822 27.4448 24.9727 27.8012 25.2524 28.0809C25.5321 28.3606 25.8885 28.551 26.2765 28.6282C26.6644 28.7054 27.0666 28.6658 27.432 28.5144C27.7975 28.363 28.1098 28.1067 28.3296 27.7778C28.5493 27.4489 28.6666 27.0622 28.6666 26.6666C28.6666 26.1362 28.4559 25.6275 28.0809 25.2524C27.7058 24.8774 27.1971 24.6666 26.6666 24.6666Z" fill="black"/>
</g>
<defs>
<clipPath id="clip0_2_16">
<rect width="32" height="32" fill="white"/>
</clipPath>
</defs>
</svg>
